<?xml version="1.0" encoding="utf-8"?>
<!-- Generator: Adobe Illustrator 23.0.1, SVG Export Plug-In . SVG Version: 6.00 Build 0)  -->
<svg version="1.1" id="Слой_1" xmlns="http://www.w3.org/2000/svg" xmlns:xlink="http://www.w3.org/1999/xlink" x="0px" y="0px"
	 viewBox="0 0 1602 333" style="enable-background:new 0 0 1602 333;" xml:space="preserve">
<style type="text/css">
	.st0{fill:#312C96;}
	.st1{font-family:'Raleway-Medium';}
	.st2{font-size:150px;}
	.st3{fill:none;stroke:#000000;stroke-width:0.25;stroke-miterlimit:10;}
</style>
<g>
	<polygon class="st0" points="39.5,314.5 39.5,290.02 129.62,290.02 9.81,167.28 159.43,21.24 202.09,64.95 185.64,81.45 
		159.72,54.88 41.47,170.29 156.88,288.54 275.13,173.13 244.13,141.37 260.58,124.87 306.77,172.2 186.06,290.02 263.5,290.02 
		263.5,314.5 	"/>
	<path d="M159.42,21.94l41.96,43l-15.74,15.79l-25.22-25.84l-0.7-0.72l-0.72,0.7L41.48,169.58l-0.72,0.7l0.7,0.72l114.71,117.53
		l0.7,0.72l0.72-0.7l117.53-114.71l0.72-0.7l-0.7-0.72l-30.3-31.04l15.74-15.79l45.49,46.61L186.59,288.8l-1.76,1.72h2.46H263V314
		H40v-23.48h88.43h2.37l-1.66-1.7L10.51,167.29L159.42,21.94 M159.44,20.53L9.1,167.27l119.33,122.25H39V315h225v-25.48h-76.71
		l120.19-117.31l-46.9-48.05l-17.15,17.21l30.99,31.75L156.89,287.83L42.18,170.3L159.71,55.59l25.93,26.57l17.15-17.21
		L159.44,20.53L159.44,20.53z"/>
</g>
<text transform="matrix(1 0 0 1 333 225)" class="st1 st2">КАПИТАЛ</text>
<text transform="matrix(1 0 0 1 333 225)" class="st3 st1 st2">КАПИТАЛ</text>
<text transform="matrix(1 0 0 1 1085 225)" class="st1 st2">СТРОЙ</text>
</svg>
